<mxfile host="Electron" modified="2024-06-19T15:37:38.331Z" agent="Mozilla/5.0 (Windows NT 10.0; Win64; x64) AppleWebKit/537.36 (KHTML, like Gecko) draw.io/24.4.0 Chrome/120.0.6099.109 Electron/28.1.0 Safari/537.36" etag="k8G9j5P1_Qjq4iUYuLGt" version="24.4.0" type="device">
  <diagram name="Page-1" id="lMkIZ5ReDiUbH32EKImj">
    <mxGraphModel dx="1202" dy="809" grid="1" gridSize="10" guides="1" tooltips="1" connect="1" arrows="1" fold="1" page="1" pageScale="1" pageWidth="827" pageHeight="1169" math="0" shadow="0">
      <root>
        <mxCell id="0" />
        <mxCell id="1" parent="0" />
        <mxCell id="E9R2t4yBGJHxdbDllo2Q-1" value="" style="endArrow=classic;html=1;rounded=0;strokeWidth=3;jumpSize=7;" edge="1" parent="1">
          <mxGeometry width="50" height="50" relative="1" as="geometry">
            <mxPoint x="160" y="400" as="sourcePoint" />
            <mxPoint x="680" y="400" as="targetPoint" />
          </mxGeometry>
        </mxCell>
        <mxCell id="E9R2t4yBGJHxdbDllo2Q-4" value="&lt;font style=&quot;font-size: 20px;&quot;&gt;Re(I)&lt;/font&gt;" style="edgeLabel;html=1;align=center;verticalAlign=middle;resizable=0;points=[];" vertex="1" connectable="0" parent="E9R2t4yBGJHxdbDllo2Q-1">
          <mxGeometry x="0.5778" y="3" relative="1" as="geometry">
            <mxPoint x="129" y="-17" as="offset" />
          </mxGeometry>
        </mxCell>
      </root>
    </mxGraphModel>
  </diagram>
</mxfile>
